<svg xmlns="http://www.w3.org/2000/svg" width="24" height="24" fill="none"><path fill="#000" d="M12 0c1.254 0 2.173 1.932 3.304 2.283 1.173.364 3.102-.67 4.078.009.986.685.55 2.762 1.267 3.704.71.933 2.916 1.175 3.297 2.295.367 1.081-1.257 2.51-1.257 3.709 0 1.198 1.624 2.628 1.257 3.709-.38 1.12-2.587 1.362-3.298 2.295-.717.942-.28 3.02-1.266 3.704-.976.68-2.905-.355-4.078.01C14.173 22.067 13.254 24 12 24s-2.173-1.932-3.304-2.283c-1.173-.364-3.102.67-4.078-.009-.986-.685-.55-2.762-1.267-3.704-.71-.933-2.916-1.175-3.297-2.295-.367-1.081 1.257-2.51 1.257-3.709 0-1.198-1.624-2.628-1.257-3.709.38-1.12 2.587-1.362 3.298-2.295.717-.942.28-3.02 1.266-3.704.976-.68 2.906.355 4.078-.01C9.827 1.933 10.746 0 12 0Z"/><path fill="#fff" d="m11.795 6.34-3.382 6.169a.434.434 0 0 0 .012.437c.04.066.098.12.166.158a.47.47 0 0 0 .226.059h1.778a.469.469 0 0 1 .324.13.443.443 0 0 1 .135.315v3.706c0 .458.628.617.859.217l3.53-6.11a.434.434 0 0 0-.004-.442.471.471 0 0 0-.395-.22l-1.927-.002a.466.466 0 0 1-.324-.13.439.439 0 0 1-.135-.315V6.548c.001-.463-.638-.618-.863-.209Z"/></svg>