<svg xmlns="http://www.w3.org/2000/svg" width="70" height="72" fill="none"><path fill="#000" d="M34.56 0c3.61 0 6.258 5.795 9.516 6.848 3.377 1.092 8.933-2.01 11.744.027 2.84 2.056 1.583 8.288 3.648 11.114 2.045 2.798 8.4 3.523 9.496 6.884 1.058 3.243-3.62 7.533-3.62 11.127 0 3.594 4.678 7.884 3.62 11.127-1.096 3.361-7.45 4.086-9.497 6.884-2.066 2.826-.809 9.06-3.648 11.114-2.81 2.037-8.367-1.065-11.744.027C40.818 66.205 38.171 72 34.56 72c-3.611 0-6.258-5.795-9.516-6.848-3.377-1.092-8.933 2.01-11.744-.027-2.84-2.057-1.583-8.288-3.648-11.114-2.046-2.798-8.4-3.523-9.496-6.884-1.058-3.243 3.62-7.533 3.62-11.127 0-3.594-4.678-7.884-3.62-11.127 1.096-3.361 7.45-4.086 9.497-6.884 2.066-2.826.808-9.06 3.648-11.114 2.81-2.037 8.367 1.065 11.744-.027C28.302 5.795 30.949 0 34.56 0Z"/><path fill="#fff" d="m33.965 19.019-9.74 18.508a1.348 1.348 0 0 0 .033 1.313 1.327 1.327 0 0 0 1.13.649h5.12a1.31 1.31 0 0 1 .935.39 1.337 1.337 0 0 1 .387.945v11.119c0 1.374 1.808 1.852 2.474.652l10.17-18.33a1.344 1.344 0 0 0-.496-1.81 1.313 1.313 0 0 0-.656-.178l-5.551-.006c-.35 0-.686-.142-.933-.392a1.343 1.343 0 0 1-.387-.943v-11.29c.002-1.391-1.84-1.855-2.486-.627Z"/></svg>